# xmcd
# Copyright (C) 1995-1998 Ti Kan
#
# Track frame offsets:
#       150
#       12122
#       28912
#       41351
#       58523
#       72872
#       89265
#       103913
#       120573
#       136677
#       150837
#       166588
#       229342
#
# Disc length: 3623 seconds
#
# Revision: 0
# Processed by: cddbd v1.5PL3 Copyright (c) Steve Scherf et al.
# Submitted via: CD-Transfer v1.0
#
DISCID=960e250d
DTITLE=Scream - Fahrlässig
DYEAR=2004
DGENRE=
TTITLE0=Wiise Martini
TTITLE1=Fahrlaessig
TTITLE2=Ig Bi Anti
TTITLE3=Chlikariert
TTITLE4=Mir Spiele Nume Ire Band
TTITLE5=Mond
TTITLE6=Blues
TTITLE7=Strand
TTITLE8=Ig Bi Da Und Du Bisch Dert
TTITLE9=Chlaebe
TTITLE10=Fruehlig
TTITLE11=1/2 Ballade
TTITLE12=Data Track
EXTD=
EXTT0=
EXTT1=
EXTT2=
EXTT3=
EXTT4=
EXTT5=
EXTT6=
EXTT7=
EXTT8=
EXTT9=
EXTT10=
EXTT11=
EXTT12=
PLAYORDER=
